<?xml version="1.0" encoding="UTF-8"?>
<svg width="20" height="20" viewBox="0 0 20 20" fill="none" xmlns="http://www.w3.org/2000/svg">
  <path d="M14.1667 1.66667H5.83333C3.53215 1.66667 1.66667 3.53215 1.66667 5.83333V14.1667C1.66667 16.4679 3.53215 18.3333 5.83333 18.3333H14.1667C16.4679 18.3333 18.3333 16.4679 18.3333 14.1667V5.83333C18.3333 3.53215 16.4679 1.66667 14.1667 1.66667Z" stroke="#4B5563" stroke-width="1.5" stroke-linecap="round" stroke-linejoin="round"/>
  <path d="M13.3333 9.47501C13.4362 10.1685 13.3177 10.8769 12.9947 11.4992C12.6716 12.1215 12.1609 12.6262 11.5347 12.9414C10.9084 13.2566 10.1987 13.3663 9.50653 13.2549C8.81437 13.1436 8.17475 12.8167 7.67903 12.321C7.18331 11.8252 6.85644 11.1856 6.7451 10.4935C6.63375 9.8013 6.74343 9.09159 7.05864 8.46532C7.37384 7.83905 7.87853 7.32839 8.50082 7.00533C9.12311 6.68227 9.83146 6.56383 10.525 6.66667C11.2324 6.77158 11.8874 7.10123 12.3931 7.60693C12.8988 8.11263 13.2284 8.76757 13.3333 9.47501Z" stroke="#4B5563" stroke-width="1.5" stroke-linecap="round" stroke-linejoin="round"/>
  <path d="M14.5833 5.41667H14.5917" stroke="#4B5563" stroke-width="1.5" stroke-linecap="round" stroke-linejoin="round"/>
</svg> 