<?xml version="1.0" encoding="UTF-8"?>
<svg width="14" height="14" viewBox="0 0 14 14" fill="none" xmlns="http://www.w3.org/2000/svg">
  <path d="M12.25 5.83333C12.25 9.91667 7 13.4167 7 13.4167C7 13.4167 1.75 9.91667 1.75 5.83333C1.75 4.44094 2.30312 3.10558 3.28769 2.12101C4.27226 1.13644 5.60761 0.583328 7 0.583328C8.39239 0.583328 9.72774 1.13644 10.7123 2.12101C11.6969 3.10558 12.25 4.44094 12.25 5.83333Z" stroke="#6B7280" stroke-width="1.5" stroke-linecap="round" stroke-linejoin="round"/>
  <path d="M7 7.58333C7.96649 7.58333 8.75 6.79982 8.75 5.83333C8.75 4.86684 7.96649 4.08333 7 4.08333C6.03351 4.08333 5.25 4.86684 5.25 5.83333C5.25 6.79982 6.03351 7.58333 7 7.58333Z" stroke="#6B7280" stroke-width="1.5" stroke-linecap="round" stroke-linejoin="round"/>
</svg> 