<?xml version="1.0" encoding="UTF-8"?>
<svg width="20" height="20" viewBox="0 0 20 20" fill="none" xmlns="http://www.w3.org/2000/svg">
  <path d="M19.1667 2.49999C18.3687 3.06308 17.4851 3.49999 16.55 3.77499C16.0482 3.19437 15.3812 2.78279 14.6392 2.59243C13.8973 2.40207 13.1163 2.44143 12.4018 2.70556C11.6873 2.96968 11.0737 3.44617 10.6442 4.06897C10.2146 4.69176 9.98979 5.43236 10 6.18749V7.02082C8.53557 7.06163 7.08444 6.74361 5.77588 6.09415C4.46733 5.4447 3.34197 4.48385 2.50001 3.29166C2.50001 3.29166 -0.833325 10.8333 6.66668 14.1667C4.95045 15.3316 2.90611 15.9157 0.833344 15.8333C8.33334 20 17.5 15.8333 17.5 6.16666C17.4993 5.95251 17.477 5.73907 17.4333 5.52916C18.2838 4.71651 18.8841 3.67126 19.1667 2.49999Z" stroke="#4B5563" stroke-width="1.5" stroke-linecap="round" stroke-linejoin="round"/>
</svg> 