<?xml version="1.0" encoding="UTF-8"?>
<svg width="14" height="14" viewBox="0 0 14 14" fill="none" xmlns="http://www.w3.org/2000/svg">
  <path d="M9.91667 12.25V11.0833C9.91667 10.4647 9.67076 9.87145 9.23318 9.43387C8.79559 8.99629 8.20233 8.75 7.58333 8.75H3.08333C2.46433 8.75 1.87107 8.99629 1.43349 9.43387C0.995907 9.87145 0.75 10.4647 0.75 11.0833V12.25" stroke="#6B7280" stroke-width="1.5" stroke-linecap="round" stroke-linejoin="round"/>
  <path d="M5.33333 6.41667C6.62417 6.41667 7.66667 5.37417 7.66667 4.08333C7.66667 2.7925 6.62417 1.75 5.33333 1.75C4.0425 1.75 3 2.7925 3 4.08333C3 5.37417 4.0425 6.41667 5.33333 6.41667Z" stroke="#6B7280" stroke-width="1.5" stroke-linecap="round" stroke-linejoin="round"/>
  <path d="M13.25 12.25V11.0833C13.2495 10.5659 13.0712 10.0644 12.7439 9.66207C12.4166 9.25978 11.9597 8.97879 11.4583 8.86084" stroke="#6B7280" stroke-width="1.5" stroke-linecap="round" stroke-linejoin="round"/>
  <path d="M9.20833 1.86084C9.71067 1.97812 10.1687 2.25909 10.4967 2.66195C10.8247 3.06482 11.0033 3.56734 11.0033 4.08584C11.0033 4.60434 10.8247 5.10686 10.4967 5.50973C10.1687 5.91259 9.71067 6.19356 9.20833 6.31084" stroke="#6B7280" stroke-width="1.5" stroke-linecap="round" stroke-linejoin="round"/>
</svg> 