<?xml version="1.0" encoding="UTF-8"?>
<svg width="20" height="20" viewBox="0 0 20 20" fill="none" xmlns="http://www.w3.org/2000/svg">
  <path d="M18.7167 5.175C18.6167 4.80833 18.4167 4.475 18.1417 4.2C17.8667 3.925 17.5333 3.725 17.1667 3.625C15.7167 3.25 10 3.25 10 3.25C10 3.25 4.28334 3.25 2.83334 3.625C2.46667 3.725 2.13334 3.925 1.85834 4.2C1.58334 4.475 1.38334 4.80833 1.28334 5.175C1.00834 6.65833 0.875008 8.15833 0.883341 9.66667C0.875008 11.175 1.00834 12.675 1.28334 14.1583C1.38334 14.525 1.58334 14.8583 1.85834 15.1333C2.13334 15.4083 2.46667 15.6083 2.83334 15.7083C4.28334 16.0833 10 16.0833 10 16.0833C10 16.0833 15.7167 16.0833 17.1667 15.7083C17.5333 15.6083 17.8667 15.4083 18.1417 15.1333C18.4167 14.8583 18.6167 14.525 18.7167 14.1583C18.9917 12.675 19.125 11.175 19.1167 9.66667C19.125 8.15833 18.9917 6.65833 18.7167 5.175Z" stroke="#4B5563" stroke-width="1.5" stroke-linecap="round" stroke-linejoin="round"/>
  <path d="M8.125 12.2917L12.9167 9.66667L8.125 7.04167V12.2917Z" stroke="#4B5563" stroke-width="1.5" stroke-linecap="round" stroke-linejoin="round"/>
</svg> 